<svg xmlns="http://www.w3.org/2000/svg" width="304" height="155" viewBox="0 0 304 155">
  <g fill="none" fill-rule="evenodd">
    <path fill="#FFF" fill-rule="nonzero" d="M283.148649,0 C287.497582,0.0755129563 296,3.65739695 296,8.0649522 C296,12.4725074 292.497582,16.0543914 288.148649,16.1311207 L273.314557,16.1311207 C270.227494,17.0523789 267.959459,20.1020466 267.959459,23.4897307 C267.959459,26.8503309 270.191375,29.6847724 273.240674,30.5653171 L286.185811,30.5653171 L286.185811,30.5995607 C286.416448,30.576909 286.650295,30.5653171 286.886824,30.5653171 C290.835847,30.5653171 294.037162,33.796522 294.037162,37.7824153 C294.037162,41.7683085 290.835847,44.9995135 286.886824,44.9995135 C286.650295,44.9995135 286.416448,44.9879215 286.185811,44.9652699 L286.185811,44.9995135 L259.187358,44.9995135 C255.865111,45.9776369 252.956081,49.352184 252.956081,52.9348504 C252.956081,56.4911584 255.822463,59.629873 259.114099,60.5658036 L259.685811,60.5671633 C263.570124,60.6425628 266.695946,63.8442867 266.695946,67.7829018 C266.695946,71.721517 263.570124,74.9232408 259.685811,75 L29.752824,75 C25.8564849,74.9232408 22.7209857,71.721517 22.7209857,67.7829018 C22.7209857,63.8442867 25.8564849,60.6425628 29.752824,60.5671633 L46.0776238,60.5658036 C49.3794502,59.629873 52.2547067,56.4911584 52.2547067,52.9348504 C52.2547067,49.352184 49.336671,45.9776369 46.0041377,44.9995135 L18.8756589,44.9995135 L18.8756589,44.9652699 C18.6443076,44.9879215 18.4097367,44.9995135 18.1724751,44.9995135 C14.2112265,44.9995135 11,41.7683085 11,37.7824153 C11,33.796522 14.2112265,30.5653171 18.1724751,30.5653171 C18.4097367,30.5653171 18.6443076,30.576909 18.8756589,30.5995607 L18.8756589,30.5653171 L36.8608737,30.5653171 C39.9196136,29.6847724 42.1584386,26.8503309 42.1584386,23.4897307 C42.1584386,20.1020466 39.8833818,17.0523789 36.7867616,16.1311207 L28.3760355,16.1311207 C24.0136379,16.0543914 20.5003765,12.4725074 20.5003765,8.0649522 C20.5003765,3.65739695 24.0136379,0.0755129563 28.3760355,0 L283.148649,0 Z M8,75 C3.581722,75 0,71.418278 0,67 C0,62.581722 3.581722,59 8,59 C12.418278,59 16,62.581722 16,67 C16,71.418278 12.418278,75 8,75 Z M280.5,62 L297.5,62 C301.089851,62 304,64.9101491 304,68.5 C304,72.0898509 301.089851,75 297.5,75 L280.5,75 C276.910149,75 274,72.0898509 274,68.5 C274,64.9101491 276.910149,62 280.5,62 Z" opacity=".2" transform="translate(0 80)"/>
    <rect width="133" height="4" x="115" y="124" fill="#000" fill-rule="nonzero" rx="2"/>
    <path fill="#000" fill-rule="nonzero" d="M58,124 L106,124 C107.104569,124 108,124.895431 108,126 C108,127.104569 107.104569,128 106,128 L58,128 C56.8954305,128 56,127.104569 56,126 C56,124.895431 56.8954305,124 58,124 Z"/>
    <g transform="translate(121 62)">
      <path fill="#B3B3B3" d="M10 51L18 51 18 59.6666667C18 62.0597332 16.2089845 64 14 64 11.7910155 64 10 62.0597332 10 59.6666667L10 51zM113 51L105 51 105 59.6666667C105 62.0597332 106.791016 64 109 64 111.208984 64 113 62.0597332 113 59.6666667L113 51z"/>
      <polygon fill="#F80" points="2 18 23 18 23 56 2 56"/>
      <polygon fill="#F80" points="100 18 121 18 121 56 100 56"/>
      <path fill="#FDB62F" d="M15,43 L15,10.2 C15,5.67158203 18.7377717,2 23.3478261,2 L54.6521739,2 C59.2622283,2 63,5.67158203 63,10.2 L63,43 L15,43 Z"/>
      <path fill="#FFA900" d="M60,43 L60,10.2 C60,5.67158203 63.7377717,2 68.3478261,2 L99.6521739,2 C104.262228,2 108,5.67158203 108,10.2 L108,43 L60,43 Z"/>
      <polygon fill="#FFE9CC" points="13 39 108 39 108 56 13 56"/>
      <path fill="#FFDAAA" d="M15,44 L15,37.5 C15,33.9104005 17.8033289,31 21.2608696,31 L56.7391304,31 C60.1966711,31 63,33.9104005 63,37.5 L63,44 L15,44 Z"/>
      <path fill="#FFDAAA" d="M60,44 L60,37.5 C60,33.9104005 62.8033289,31 66.2608696,31 L101.73913,31 C105.196671,31 108,33.9104005 108,37.5 L108,44 L60,44 Z"/>
      <path fill="#000" fill-rule="nonzero" d="M120.95,16.5 L110.7,16.5 L110.7,10.3125 C110.692993,4.61947638 106.10852,0.00704957344 100.45,0 L69.7,0 C66.4608398,0.00906370781 63.418872,1.56298828 61.5,4.18844611 C59.581128,1.56298828 56.5391602,0.00906370781 53.3,0 L22.55,0 C16.8914796,0.00704957344 12.3070069,4.61947638 12.3,10.3125 L12.3,16.5 L2.05,16.5 C0.917895444,16.5 0,17.4234924 0,18.5625 L0,55.6875 C0,56.8265076 0.917895444,57.75 2.05,57.75 L8.2,57.75 L8.2,59.8125 C8.2,63.2295226 10.9536866,66 14.35,66 C17.7463134,66 20.5,63.2295226 20.5,59.8125 L20.5,57.75 L102.5,57.75 L102.5,59.8125 C102.5,63.2295226 105.253687,66 108.65,66 C112.046313,66 114.8,63.2295226 114.8,59.8125 L114.8,57.75 L120.95,57.75 C122.082105,57.75 123,56.8265076 123,55.6875 L123,18.5625 C123,17.4234924 122.082105,16.5 120.95,16.5 Z M16.4,53.625 L16.4,45.375 L106.6,45.375 L106.6,53.625 L16.4,53.625 Z M106.6,41.25 L63.55,41.25 L63.55,37.125 C63.55,34.8469847 65.3857909,33 67.65,33 L102.5,33 C104.764209,33 106.6,34.8469847 106.6,37.125 L106.6,41.25 Z M59.45,41.25 L16.4,41.25 L16.4,37.125 C16.4,34.8469847 18.2357909,33 20.5,33 L55.35,33 C57.6142091,33 59.45,34.8469847 59.45,37.125 L59.45,41.25 Z M69.7,4.125 L100.45,4.125 C103.846313,4.125 106.6,6.89547736 106.6,10.3125 L106.6,30.0220643 C105.358789,29.2798461 103.943408,28.8830566 102.5,28.875 L67.65,28.875 C66.2065919,28.8830566 64.7912109,29.2798461 63.55,30.0220643 L63.55,10.3125 C63.55,6.89547736 66.3036866,4.125 69.7,4.125 Z M16.4,10.3125 C16.4,6.89547736 19.1536866,4.125 22.55,4.125 L53.3,4.125 C56.6963134,4.125 59.45,6.89547736 59.45,10.3125 L59.45,30.0220643 C58.2087891,29.2798461 56.7934081,28.8830566 55.35,28.875 L20.5,28.875 C19.0565919,28.8830566 17.6412109,29.2798461 16.4,30.0220643 L16.4,10.3125 Z M4.1,20.625 L12.3,20.625 L12.3,53.625 L4.1,53.625 L4.1,20.625 Z M16.4,59.8125 C16.4,60.9515076 15.4821046,61.875 14.35,61.875 C13.2178954,61.875 12.3,60.9515076 12.3,59.8125 L12.3,57.75 L16.4,57.75 L16.4,59.8125 Z M110.7,59.8125 C110.7,60.9515076 109.782105,61.875 108.65,61.875 C107.517895,61.875 106.6,60.9515076 106.6,59.8125 L106.6,57.75 L110.7,57.75 L110.7,59.8125 Z M118.9,53.625 L110.7,53.625 L110.7,20.625 L118.9,20.625 L118.9,53.625 Z"/>
      <path fill="#000" d="M23.1666667 18.6666667L25.3333333 18.6666667 25.3333333 20.8333333C25.3333333 22.0298666 26.3034667 23 27.5 23 28.6965333 23 29.6666667 22.0298666 29.6666667 20.8333333L29.6666667 18.6666667 31.8333333 18.6666667C33.0298666 18.6666667 34 17.6965333 34 16.5 34 15.3034667 33.0298666 14.3333333 31.8333333 14.3333333L29.6666667 14.3333333 29.6666667 12.1666667C29.6666667 10.9701334 28.6965333 10 27.5 10 26.3034667 10 25.3333333 10.9701334 25.3333333 12.1666667L25.3333333 14.3333333 23.1666667 14.3333333C21.9701334 14.3333333 21 15.3034667 21 16.5 21 17.6965333 21.9701334 18.6666667 23.1666667 18.6666667zM43.1666667 18.6666667L45.3333333 18.6666667 45.3333333 20.8333333C45.3333333 22.0298666 46.3034667 23 47.5 23 48.6965333 23 49.6666667 22.0298666 49.6666667 20.8333333L49.6666667 18.6666667 51.8333333 18.6666667C53.0298666 18.6666667 54 17.6965333 54 16.5 54 15.3034667 53.0298666 14.3333333 51.8333333 14.3333333L49.6666667 14.3333333 49.6666667 12.1666667C49.6666667 10.9701334 48.6965333 10 47.5 10 46.3034667 10 45.3333333 10.9701334 45.3333333 12.1666667L45.3333333 14.3333333 43.1666667 14.3333333C41.9701334 14.3333333 41 15.3034667 41 16.5 41 17.6965333 41.9701334 18.6666667 43.1666667 18.6666667zM71.1666667 18.6666667L73.3333333 18.6666667 73.3333333 20.8333333C73.3333333 22.0298666 74.3034667 23 75.5 23 76.6965333 23 77.6666667 22.0298666 77.6666667 20.8333333L77.6666667 18.6666667 79.8333333 18.6666667C81.0298666 18.6666667 82 17.6965333 82 16.5 82 15.3034667 81.0298666 14.3333333 79.8333333 14.3333333L77.6666667 14.3333333 77.6666667 12.1666667C77.6666667 10.9701334 76.6965333 10 75.5 10 74.3034667 10 73.3333333 10.9701334 73.3333333 12.1666667L73.3333333 14.3333333 71.1666667 14.3333333C69.9701334 14.3333333 69 15.3034667 69 16.5 69 17.6965333 69.9701334 18.6666667 71.1666667 18.6666667zM89.1666667 18.6666667L91.3333333 18.6666667 91.3333333 20.8333333C91.3333333 22.0298666 92.3034667 23 93.5 23 94.6965333 23 95.6666667 22.0298666 95.6666667 20.8333333L95.6666667 18.6666667 97.8333333 18.6666667C99.0298666 18.6666667 100 17.6965333 100 16.5 100 15.3034667 99.0298666 14.3333333 97.8333333 14.3333333L95.6666667 14.3333333 95.6666667 12.1666667C95.6666667 10.9701334 94.6965333 10 93.5 10 92.3034667 10 91.3333333 10.9701334 91.3333333 12.1666667L91.3333333 14.3333333 89.1666667 14.3333333C87.9701334 14.3333333 87 15.3034667 87 16.5 87 17.6965333 87.9701334 18.6666667 89.1666667 18.6666667z"/>
    </g>
    <g transform="translate(57)">
      <path fill="#FFDAAA" d="M13,126 C13,121.029785 16.7312826,117 21.3333333,117 L29.6666667,117 C34.2687174,117 38,121.029785 38,126 L13,126 Z"/>
      <polygon fill="#FDB62F" points="8.409 2 44.727 2 49 45 2 45"/>
      <path fill="#B3B3B3" d="M17,83.5 C17,85.9851076 15.2089845,88 13,88 C10.7910155,88 9,85.9851076 9,83.5 C9,81.0148924 10.7910155,79 13,79 C15.2089845,79 17,81.0148924 17,83.5 Z"/>
      <path fill="#000" fill-rule="nonzero" d="M2.12446259,46.9333487 L10.6227065,46.9333487 L10.6227065,77.1927179 C7.69624834,78.2312596 5.9409958,81.2364673 6.46591161,84.3083416 C6.99082769,87.3812579 9.64341671,89.6260489 12.7472675,89.6260489 C15.8511184,89.6260489 18.504745,87.3812579 19.0296608,84.3083416 C19.5545766,81.2364673 17.7982867,78.2312596 14.8718285,77.1927179 L14.8718285,46.9333487 L23.3700725,46.9333487 L23.3700725,115.200002 L21.2455115,115.200002 C15.3811838,115.207294 10.6299683,119.978127 10.6227065,125.866667 C10.6227065,127.044792 11.573987,128 12.7472675,128 L38.2419994,128 C39.41528,128 40.3665604,127.044792 40.3665604,125.866667 C40.3592986,119.978127 35.6080831,115.207294 29.7437554,115.200002 L27.6191945,115.200002 L27.6191945,46.9333487 L48.8648043,46.9333487 C49.467524,46.9364738 50.0422344,46.6823072 50.4478514,46.2354321 C50.8524307,45.7875156 51.0495334,45.1885573 50.9893653,44.5864743 L46.7402434,1.91981571 C46.6302809,0.826065783 45.7111591,-0.00518397894 44.6156824,0 L8.49814556,0 C7.44623876,0 6.55305181,0.772940993 6.39744445,1.81773226 L0.0237614305,44.4843908 C-0.0685655633,45.0979326 0.11090168,45.7218906 0.514443716,46.1927238 C0.917985751,46.6625155 1.50618215,46.9333487 2.12446259,46.9333487 Z M12.7472675,85.3333414 C11.573987,85.3333414 10.6227065,84.3781334 10.6227065,83.2000085 C10.6227065,82.0218837 11.573987,81.0666756 12.7472675,81.0666756 C13.9205481,81.0666756 14.8718285,82.0218837 14.8718285,83.2000085 C14.8718285,84.3781334 13.9205481,85.3333414 12.7472675,85.3333414 Z M35.7543541,123.733334 L15.2349128,123.733334 C16.1384735,121.178126 18.5452027,119.469793 21.2455115,119.466668 L29.7437554,119.466668 C32.4440642,119.469793 34.8507935,121.178126 35.7543541,123.733334 Z M10.3270524,4.2666902 L42.7037849,4.2666902 L46.5275798,42.6666829 L4.59135993,42.6666829 L10.3270524,4.2666902 Z"/>
    </g>
  </g>
</svg>
