<?xml version="1.0" encoding="UTF-8"?>
<svg width="148px" height="13px" viewBox="0 0 148 13" version="1.1" xmlns="http://www.w3.org/2000/svg" xmlns:xlink="http://www.w3.org/1999/xlink">
    <title>Path</title>
    <g id="Desktop" stroke="none" stroke-width="1" fill="none" fill-rule="evenodd">
        <g id="doron-" transform="translate(-899.000000, -284.000000)" fill="#FF7100">
            <path d="M971.542434,288.100703 C973.423849,288.081071 975.873608,288.027082 977.741958,288.135059 C978.153517,287.978002 978.747992,287.987818 979.349,287.978002 L979.401261,288.213588 L979.904278,288.164508 C980.100259,288.243036 979.51885,288.189048 979.871615,288.292117 L980.067596,288.159599 C980.100259,288.243036 981.34147,288.282301 980.498753,288.405002 L982.425897,288.508071 C982.850522,288.537519 982.687204,288.326473 983.157558,288.40991 C983.249016,288.48353 982.987708,288.449174 983.013839,288.532611 C984.418367,288.782921 984.686208,288.164508 985.999279,288.351013 L985.88169,288.375553 C986.110334,288.331381 986.541492,288.365737 986.548025,288.331381 C986.397773,288.085979 986.299782,288.439358 985.907821,288.277393 C985.960082,288.085979 986.417371,288.203772 986.410838,288.056531 C986.711342,288.149783 986.907323,288.046714 987.175163,288.056531 C987.625919,288.20868 988.292253,288.164508 988.62542,288.341197 C988.854064,288.292117 989.128437,288.120335 989.618389,288.144875 C989.951556,288.321565 989.520399,288.287209 989.98422,288.375553 L990.075678,288.267576 C990.461106,288.311749 990.395779,288.336289 990.376181,288.390278 C990.787741,288.424634 990.742012,288.25776 991.251562,288.365737 L990.951058,288.454082 C991.34302,288.439358 991.493271,288.463898 992.028952,288.512979 C992.009354,288.576783 991.793775,288.557151 991.636991,288.527703 C991.904831,288.714208 992.140008,288.493346 992.296792,288.522795 C992.257596,288.468806 991.891766,288.419726 992.087746,288.321565 C992.349054,288.365737 992.675688,288.213588 992.845538,288.360829 L992.538502,288.444266 C993.106846,288.400094 992.852071,288.326473 993.485742,288.419726 C993.453079,288.424634 993.466144,288.454082 993.446546,288.478622 C993.871171,288.365737 994.374188,288.537519 994.968663,288.596415 L994.851074,288.616047 C995.099317,288.596415 995.243036,288.508071 995.37369,288.522795 C995.040522,288.429542 995.138513,288.405002 995.125447,288.292117 C995.550072,288.512979 995.844043,288.130151 996.556107,288.301933 C996.536509,288.365737 996.347061,288.429542 996.157612,288.346105 C995.876707,288.517887 995.824445,288.674944 995.367157,288.728932 C995.648063,288.7093 995.98123,288.704392 995.902838,288.782921 L996.013893,288.611139 C996.183743,288.620956 996.314397,288.640588 996.438518,288.650404 C996.529976,288.542427 996.124949,288.439358 996.523443,288.395186 C996.974199,288.370645 996.732489,288.596415 996.810882,288.522795 C997.424954,288.498254 997.091787,288.351013 997.666664,288.45899 C997.60787,288.468806 997.490281,288.488438 997.43802,288.468806 C997.843047,288.571875 998.470185,288.517887 998.55511,288.748565 C998.48325,288.792737 998.463652,288.851634 998.306868,288.822185 L998.319933,288.787829 C997.836514,288.900714 998.705362,288.782921 998.535512,288.95961 C998.522446,288.841817 999.103856,288.920346 999.365164,288.969427 L999.299837,288.832001 C1000.24054,288.522795 999.208379,289.08722 1000.08376,289.116668 C1000.6521,289.077404 999.881246,289.062679 1000.23401,288.998875 C1000.59984,289.057771 1000.72396,289.18538 1001.27924,289.180472 C1001.42296,289.244277 1001.71693,289.347346 1001.71693,289.494587 C1002.05663,289.465139 1002.7099,289.651645 1002.91895,289.528943 C1002.37673,289.352254 1002.33101,289.632012 1001.70387,289.376794 L1001.91291,289.249185 C1002.3702,289.298265 1002.97121,289.283541 1003.27171,289.36207 C1003.21292,289.327714 1003.19332,289.288449 1003.23905,289.263909 C1003.89885,289.273725 1004.11443,289.141208 1004.74157,289.254093 C1004.80036,289.396426 1004.43453,289.327714 1004.16016,289.317898 C1004.55212,289.460231 1004.58478,289.371886 1005.21192,289.479863 C1005.22499,289.597656 1004.7873,289.425875 1004.68931,289.533852 L1005.39484,289.573116 C1005.3883,289.578024 1005.39484,289.58784 1005.3883,289.597656 C1005.52549,289.416058 1005.91745,289.671277 1006.36168,289.661461 C1007.37424,289.769438 1007.58329,289.528943 1008.17776,289.435691 C1008.32148,289.504403 1008.35415,289.558392 1008.28229,289.597656 C1008.04711,289.484771 1008.07977,289.558392 1007.98178,289.597656 C1008.32802,289.61238 1008.69385,289.86269 1008.4848,289.921587 C1009.04008,289.926495 1008.30842,289.798886 1008.65465,289.774346 L1009.39938,289.867598 C1009.33405,289.759621 1009.07274,289.710541 1009.47777,289.676185 C1009.81094,289.686001 1009.96119,289.720357 1010.38581,289.769438 C1010.31395,289.808702 1010.49034,289.931403 1010.17023,289.892139 C1010.36621,289.951035 1010.68632,289.9903 1010.83004,289.911771 C1010.38581,289.769438 1011.61396,289.916679 1011.30039,289.725265 L1011.74461,289.867598 C1011.64009,289.852874 1011.61396,289.916679 1011.46371,289.877415 C1011.5617,290.03938 1011.85567,289.882323 1012.01899,289.887231 C1012.17577,289.936311 1012.60039,290.000116 1012.61999,290.059012 C1012.77678,290.034472 1013.12954,290.108093 1013.1818,290.191529 C1013.41045,290.186621 1013.221,290.098276 1013.29286,290.059012 L1014.03105,290.162081 C1014.05065,290.250426 1014.06372,290.481104 1013.9396,290.500736 C1014.2401,290.456564 1014.09638,290.270058 1014.52101,290.328954 C1014.2401,290.456564 1015.05669,290.51546 1014.65819,290.662701 C1014.87377,290.809943 1015.56624,290.883563 1015.9582,290.888471 C1016.22604,290.790311 1015.5597,290.770678 1015.6185,290.643069 C1016.70292,290.721598 1016.85318,290.382943 1017.63057,290.544908 L1017.43459,290.481104 C1017.94414,290.471288 1017.88534,290.481104 1018.19891,290.412391 C1018.02253,290.554724 1018.64967,290.913012 1019.46625,290.986632 C1019.55771,290.913012 1019.05469,290.775586 1019.21801,290.667609 L1019.76022,290.711782 C1019.79289,290.731414 1019.72756,290.746138 1019.6557,290.760862 C1020.15219,290.76577 1020.49842,291.084793 1020.68133,290.91792 L1021.10596,291.212402 L1020.94264,291.089701 C1021.02757,291.020989 1021.57631,291.065161 1021.6939,291.050437 C1022.26878,291.035713 1022.45169,291.128965 1022.71953,291.271299 C1022.64114,291.19277 1022.44516,291.011172 1022.88285,291.045529 C1022.80446,291.300747 1023.75823,291.271299 1023.7125,291.403816 C1023.88888,291.423448 1024.17632,291.551057 1024.22205,291.447988 L1024.15019,291.605046 C1024.25471,291.389092 1024.88839,291.487253 1025.38487,291.516701 C1025.18889,291.806275 1025.92708,291.570689 1026.05774,291.874988 C1026.20799,291.683574 1026.94618,291.91916 1027.08337,291.752287 C1027.46227,291.796459 1027.36428,291.982965 1027.44267,292.061494 L1027.63865,292.007505 C1027.79543,292.125298 1028.49443,292.252907 1028.89293,292.385424 L1029.33715,292.262723 L1029.45474,292.365792 C1029.53313,292.331436 1029.85976,292.351068 1029.68338,292.252907 L1029.89243,292.29708 C1029.97082,292.100758 1030.206,292.287264 1030.65022,292.272539 C1030.73514,292.32162 1030.69595,292.360884 1030.59796,292.375608 C1030.807,292.409965 1030.68288,292.498309 1030.78087,292.581746 C1030.65022,292.508126 1031.64319,292.34616 1031.10751,292.169471 C1031.09444,292.081126 1031.44067,292.076218 1031.63666,292.14493 L1031.70851,292.341252 L1032.01555,292.194011 C1032.34872,292.218551 1032.44671,292.355976 1032.70148,292.414873 C1032.43364,292.385424 1032.00249,292.665183 1032.69495,292.768252 C1032.32259,292.733896 1032.11354,292.807516 1031.91756,292.812424 C1032.06128,292.841872 1032.12661,292.871321 1031.87836,292.910585 C1032.43364,292.940033 1032.09394,292.832056 1032.62962,292.890953 C1032.55123,293.043102 1032.68189,293.121631 1033.13264,293.24924 L1032.81907,293.077459 C1032.83867,293.062734 1032.87133,293.04801 1032.89746,293.043102 C1032.77334,293.003838 1032.74068,292.97439 1032.73415,292.910585 C1032.83867,292.930217 1033.41355,292.812424 1033.47234,292.920401 C1033.01505,292.586654 1034.47184,292.876229 1034.17134,292.670091 C1034.24973,292.635735 1034.62209,292.684815 1034.63516,292.768252 C1034.15174,292.817332 1034.91607,293.003838 1034.80501,293.101999 C1034.98793,293.082367 1034.49144,292.930217 1034.73315,292.905677 C1035.00099,292.935125 1035.16431,293.067642 1035.30149,293.136355 L1035.18391,293.151079 L1035.56933,293.288504 C1035.66079,293.219792 1035.21657,293.092183 1035.60853,293.111815 C1035.69999,293.160895 1036.09195,293.180527 1036.05929,293.239424 C1035.84371,293.317953 1035.92863,293.484826 1035.59547,293.460286 C1035.86331,293.489734 1036.72562,293.607527 1036.42512,293.401389 L1036.74522,293.455378 C1036.56884,293.357217 1036.04622,293.146171 1036.69296,293.2247 L1036.67989,293.254148 L1037.16331,293.205068 L1037.33316,293.317953 C1037.33969,293.278688 1037.42462,293.24924 1037.58794,293.278688 C1037.61407,293.332677 1037.76432,293.376849 1037.73166,293.440654 C1038.21507,293.509366 1038.20201,293.421022 1038.2804,293.386665 C1038.55477,293.416113 1038.6397,293.465194 1038.48945,293.538815 C1038.84875,293.617343 1039.49548,293.695872 1039.71759,293.818573 C1040.23368,293.823481 1039.62614,293.769493 1039.94624,293.705688 C1040.2794,294.049251 1041.53368,294.068883 1042.34374,294.157228 C1042.20655,293.882378 1042.57238,294.162136 1042.79449,293.965814 C1042.59851,294.014895 1043.49349,294.275021 1042.76836,294.230849 L1043.20605,294.275021 C1043.45429,294.451711 1042.46786,294.265205 1042.84675,294.515515 C1043.33017,294.584228 1043.72867,294.368274 1044.26435,294.544963 C1044.0161,294.687297 1044.7151,294.554779 1044.51259,294.721653 C1044.3754,294.765825 1044.22515,294.721653 1044.06183,294.711837 L1044.14676,294.760917 C1045.17892,294.976871 1044.51912,294.60386 1045.10706,294.574412 C1045.7538,294.65294 1045.56435,294.790366 1045.57742,294.873802 C1045.66887,294.922883 1045.99551,294.947423 1046.17842,294.927791 C1045.7538,294.971963 1045.49249,294.706929 1045.70807,294.6284 C1045.92365,294.868894 1046.65531,294.795274 1046.85129,294.741285 C1046.00857,294.392814 1046.21762,294.633308 1045.4337,294.275021 C1045.29651,294.319193 1045.25732,294.495883 1044.76736,294.343734 C1045.12013,294.309377 1044.78043,294.240665 1044.6955,294.2014 C1044.76083,294.319193 1044.32314,294.186676 1044.15329,294.206308 C1044.0357,294.103239 1044.53872,294.019803 1044.02917,293.897102 L1043.85279,294.117964 C1043.65681,294.049251 1043.99651,293.955998 1043.54575,293.946182 C1043.82012,293.857837 1043.53922,293.744952 1044.14023,293.798941 C1043.50655,293.484826 1043.02313,293.740044 1042.44826,293.740044 C1042.50705,293.735136 1042.52665,293.705688 1042.58544,293.695872 C1042.44826,293.740044 1042.23921,293.70078 1042.06936,293.690964 C1041.72313,293.578079 1042.38946,293.627159 1042.3176,293.548631 L1041.72966,293.465194 C1041.72313,293.455378 1041.7166,293.45047 1041.72313,293.445562 C1041.55981,293.455378 1041.40303,293.45047 1041.37036,293.386665 C1041.56634,293.337585 1041.66434,293.268872 1041.80152,293.2247 L1041.13519,293.293412 C1041.22664,293.2247 1040.67137,293.077459 1041.12865,293.092183 L1040.20755,292.984206 L1040.18141,292.812424 C1039.95277,292.807516 1039.9397,292.836964 1040.19448,292.895861 C1039.89398,292.812424 1038.72462,292.959665 1038.99246,292.670091 C1038.23467,292.689723 1037.99296,292.59647 1037.10452,292.542482 C1037.81658,292.498309 1036.40552,292.233275 1037.13065,292.277448 C1036.73869,292.14493 1036.6015,292.301988 1036.26833,292.277448 C1035.98743,292.159654 1036.17034,292.027137 1036.51658,292.017321 L1036.10502,292.032045 L1036.12461,292.002597 L1035.75878,292.041861 C1035.43215,291.899528 1035.73265,291.87008 1035.37335,291.791551 L1035.24923,291.91916 L1035.02712,291.796459 C1035.09898,291.874988 1034.87034,291.87008 1034.6025,291.840632 L1034.61556,291.811183 L1034.28239,291.786643 C1034.62863,291.752287 1033.99496,291.708115 1034.17787,291.629586 C1033.9035,291.580505 1033.89697,291.580505 1033.38742,291.526517 L1033.44621,291.639402 C1032.76681,291.61977 1033.46581,291.492161 1032.93666,291.398908 L1032.93666,291.516701 C1032.23113,291.207494 1031.61052,291.41854 1031.08791,291.212402 C1031.42108,291.236942 1031.37535,291.094609 1031.36228,291.124057 C1030.8658,291.089701 1030.08187,290.932644 1029.53966,290.99154 C1029.40901,290.800127 1029.37634,290.746138 1028.87986,290.589081 C1028.50096,290.54 1028.44217,290.544908 1028.29192,290.623437 C1027.94568,290.510552 1027.23362,290.505644 1027.24669,290.382943 C1027.13563,290.46638 1026.92005,290.319138 1026.69794,290.368219 L1026.67181,290.31423 L1026.67181,290.432023 C1026.09693,290.08846 1025.53512,290.417299 1024.94065,290.103184 L1025.06477,290.08846 L1024.77733,290.093368 C1024.74467,290.03938 1024.86879,290.024656 1024.90145,289.960851 L1023.62758,289.759621 L1023.85622,289.882323 C1023.58185,289.857782 1023.3728,289.936311 1023.08536,289.823426 C1023.64717,289.730173 1022.66074,289.754713 1022.61501,289.617288 L1022.90245,289.607472 C1022.52355,289.568208 1022.52355,289.568208 1022.52355,289.686001 C1022.02707,289.661461 1022.24918,289.425875 1021.76576,289.489679 L1022.08586,289.53876 C1022.16425,289.617288 1021.90948,289.681093 1021.6939,289.646736 C1021.64817,289.622196 1021.51098,289.553484 1021.6743,289.558392 C1021.27581,289.548576 1020.714,289.416058 1020.53761,289.440599 C1020.34163,289.376794 1020.42656,289.308082 1020.55068,289.293357 C1019.70143,289.283541 1020.18485,289.224645 1019.3356,289.214829 L1019.36826,289.151024 L1019.06776,289.190289 L1018.6954,289.003783 L1018.81952,289.106852 C1018.54514,289.082312 1018.36876,289.106852 1018.06172,289.028323 L1018.21198,288.949794 C1017.43459,288.905622 1017.36926,288.670036 1016.61147,288.719116 C1016.56574,288.694576 1016.68333,288.679852 1016.74865,288.670036 C1016.03659,288.738749 1016.2783,288.439358 1015.5597,288.542427 C1015.61197,288.512979 1015.54664,288.468806 1015.5793,288.444266 L1015.25267,288.468806 L1015.30493,288.341197 L1015.01096,288.503162 L1014.85417,288.346105 L1014.71699,288.395186 C1014.44261,288.110519 1013.93306,288.238128 1013.52804,288.002542 L1013.56723,288.174324 C1012.35215,288.375553 1011.00642,287.668795 1009.58882,287.688427 L1009.64109,287.560818 L1009.04008,287.654071 C1008.75264,287.521554 1009.24912,287.565726 1009.1642,287.487198 C1008.53706,287.492106 1008.87023,287.649163 1008.15817,287.609899 C1007.81193,287.48229 1008.30188,287.526462 1008.4848,287.501922 C1007.8054,287.497014 1006.81243,287.462657 1006.35514,287.339956 C1006.34208,287.35468 1006.30941,287.374313 1006.32901,287.384129 C1005.87172,287.393945 1005.30338,287.276152 1004.81343,287.231979 C1004.83956,287.173083 1004.95715,287.177991 1005.08127,287.177991 C1004.90489,287.148543 1004.67624,287.084738 1004.51292,287.133819 L1004.71544,287.040566 C1004.34307,286.981669 1003.60488,287.016025 1003.53955,286.8786 C1003.57875,286.932589 1003.53955,287.025842 1003.21945,286.991485 C1003.07573,286.775531 1002.32447,286.991485 1001.82146,286.839336 C1001.89331,286.800072 1002.27221,286.824612 1002.16769,286.809888 C1001.91291,286.731359 1001.66467,286.80498 1001.42296,286.844244 L1001.50789,286.770623 L1000.27321,286.765715 C1000.12296,286.549761 999.123454,286.687187 999.227977,286.549761 C998.796819,286.500681 999.580742,286.672462 999.025464,286.643014 C998.89481,286.544853 998.522446,286.638106 998.568175,286.510497 L998.62697,286.500681 L998.241541,286.481049 L998.502848,286.373072 C998.169681,286.373072 997.908374,286.481049 997.87571,286.574302 C997.575206,286.476141 997.117918,286.500681 996.993797,286.373072 L997.111385,286.35344 C996.222939,286.333808 995.706857,285.887176 994.981728,286.049141 C994.929467,286.024601 994.942532,285.995153 995.053588,286.004969 L994.511374,285.95098 L994.655094,285.867543 L993.733984,285.941164 L993.753582,285.87736 C993.16564,285.803739 992.231465,285.754658 991.460608,285.730118 L991.578196,285.705578 C990.728947,285.74975 990.781208,285.587785 990.160603,285.622141 C990.186733,285.607417 990.206331,285.602509 990.225929,285.597601 L989.677183,285.563245 L989.807837,285.509256 C989.383212,285.622141 988.664616,285.24913 988.899793,285.386555 C988.664616,285.430728 988.25959,285.479808 988.181197,285.558337 C987.58019,285.52398 988.044011,285.465084 987.67818,285.386555 C987.247022,285.352199 987.155565,285.460176 986.574155,285.362015 L986.593753,285.29821 C986.31938,285.293302 986.142998,285.327659 985.757569,285.312935 L985.875157,285.288394 C985.234954,285.386555 985.110833,285.052808 984.59475,285.312935 C984.333442,285.244222 983.836958,285.258946 983.869621,285.131337 C983.079166,285.175509 982.471626,285.180417 981.694235,285.195142 C981.58318,284.97428 981.524386,285.20005 981.067097,285.052808 L981.093228,285.170601 C979.995736,285.126429 978.754525,284.777958 977.539444,284.787774 L977.513313,284.669981 L977.265071,284.787774 C975.965066,284.684705 974.279632,284.576728 973.234401,284.537464 C972.894701,284.581636 972.372086,284.709245 971.836405,284.660165 L971.8952,284.645441 C970.954492,284.694521 969.961523,284.723969 968.929358,284.635625 C968.994685,284.586544 968.890162,284.552188 969.00775,284.52274 C968.766041,284.645441 968.406743,284.517832 968.184631,284.508016 L968.445939,284.601268 C968.158501,284.704337 967.733876,284.591452 967.583624,284.503107 L967.126335,284.615992 C967.093672,284.606176 967.047943,284.586544 967.04141,284.566912 L966.963018,284.625809 L966.714776,284.468751 C966.60372,284.493291 965.989647,284.527648 965.806732,284.674889 C965.761003,284.625809 965.329846,284.581636 965.663013,284.557096 L963.971046,284.508016 L964.238886,284.562004 C964.278082,284.674889 963.775065,284.74851 963.507225,284.694521 C963.846925,284.601268 963.526823,284.532556 963.376571,284.444211 C963.147927,284.508016 963.579084,284.54728 963.461496,284.611084 C963.174058,284.689613 962.566517,284.723969 962.416265,284.674889 L962.586115,284.630717 C962.194154,284.674889 962.004706,284.473659 961.619277,284.478567 C961.279577,284.57182 961.01827,284.483475 961.103195,284.684705 C960.60671,284.723969 960.900681,284.552188 960.737364,284.527648 C960.50872,284.620901 959.803189,284.557096 959.705199,284.463843 C959.450424,284.758326 958.346399,284.385314 958.261474,284.630717 L957.836849,284.498199 C957.830317,284.562004 957.758457,284.714153 957.431823,284.743602 C957.111721,284.679797 957.177048,284.562004 957.072525,284.498199 L956.883077,284.743602 C955.9685,284.630717 954.910204,284.625809 953.838843,284.630717 C952.767481,284.645441 951.669989,284.689613 950.663955,284.615992 C949.788575,284.704337 948.691083,284.861395 947.652385,284.866303 L947.76344,284.831946 C947.417208,284.82213 947.070975,284.82213 946.724743,284.82213 L947.489067,284.885935 C947.266956,284.925199 947.103639,284.984096 946.88806,284.993912 C945.744839,284.964464 944.216189,284.939923 942.85739,285.150969 C942.027738,285.484716 942.204121,284.944831 941.394067,285.20005 C941.459394,285.170601 941.478992,285.126429 941.537786,285.096981 C940.636275,285.258946 940.146323,285.362015 939.270943,285.607417 C939.303606,285.322751 938.669935,285.666314 938.715664,285.514164 L938.669935,285.631957 C938.447824,285.582877 937.957872,285.602509 938.003601,285.514164 L937.63777,285.690854 L937.572443,285.577969 C937.03023,285.617233 935.900074,285.818463 935.547309,285.612325 C934.266902,285.936256 932.163375,286.147302 930.477941,286.309267 C930.28196,286.431968 929.792009,286.490865 929.419645,286.559577 L928.96889,286.481049 C928.603059,286.57921 928.263359,286.80498 927.87793,286.770623 C927.871398,286.755899 927.884463,286.741175 927.904061,286.731359 C927.525165,286.814796 927.126671,286.80498 926.819634,286.981669 C926.395009,287.040566 925.950787,287.03075 926.029179,286.888416 C926.08144,287.114186 925.114602,287.001301 925.114602,287.001301 C925.114602,287.001301 923.736204,287.182899 921.600015,287.541186 C919.463825,287.904381 916.569843,288.463898 913.604001,289.254093 C910.631627,290.034472 907.606991,291.089701 905.229092,292.228367 C902.838127,293.362125 901.093899,294.554779 900.414499,295.398963 C900.394901,295.565836 900.094397,295.840687 900.388368,295.855411 C900.146659,296.056641 899.793893,295.987928 899.85922,296.105721 C900.336107,295.929031 900.055201,296.390388 900.590882,296.267686 L900.375303,296.429652 C900.414499,296.517997 900.61048,296.169526 900.70847,296.311859 L900.551685,296.115537 C900.786862,296.022284 900.943647,295.992836 901.087366,296.002652 C901.185356,295.830871 901.002441,295.546204 901.583851,295.374423 L901.472795,295.457859 C901.832093,295.236997 901.845158,295.438227 901.956214,295.418595 L901.871289,295.462767 L902.302447,295.379331 C901.982345,295.448043 901.773299,295.801422 901.962747,295.673813 C902.465764,295.477492 901.792897,295.693445 902.099933,295.497124 C902.295914,295.379331 902.354708,295.497124 902.413502,295.551112 L902.779333,295.349882 C902.864258,295.433319 902.524558,295.477492 902.779333,295.477492 L903.145164,295.148653 C903.478331,295.300802 903.537125,294.775641 903.994413,294.863986 C903.700442,295.075032 904.105469,294.917975 904.125067,295.006319 L904.974317,294.589136 C905.085373,294.57932 904.817532,294.756009 904.941654,294.687297 C905.170298,294.667664 905.1507,294.515515 905.242157,294.471343 C905.372811,294.490975 905.888894,294.171952 906.013015,294.324101 C906.712013,294.162136 906.078342,294.044343 906.725078,293.882378 C906.888395,293.936366 906.300453,294.088515 906.640153,294.073791 L907.188899,293.798941 C907.175834,293.862745 907.21503,293.985446 906.979853,294.059067 C908.678353,293.519182 909.965293,293.67624 911.350223,293.052918 C911.650727,293.087275 911.258765,293.175619 911.167308,293.29832 C912.134146,292.7977 912.891938,293.043102 913.813047,292.74862 L913.760786,292.655367 C915.282903,292.557206 916.765824,291.958425 918.392463,291.727747 L918.170352,291.708115 C918.327137,291.570689 918.666836,291.477437 918.895481,291.379276 C918.960808,291.41854 918.830154,291.61977 919.254779,291.477437 C919.143723,291.462712 918.934677,291.472528 918.960808,291.413632 C920.437196,291.354735 923.246253,290.71669 925.57189,290.46638 C927.087475,290.171897 928.707582,289.951035 930.340755,289.749805 C931.967395,289.558392 933.587502,289.41115 935.109619,289.18538 C934.645798,289.249185 934.763386,288.989059 935.13575,288.998875 C936.220176,289.278633 936.78852,288.733841 937.866414,288.925254 C939.643306,288.640588 941.32874,288.812369 942.942315,288.390278 L943.001109,288.503162 C943.268949,288.537519 943.314678,288.454082 943.575986,288.424634 L943.575986,288.45899 C944.209657,288.463898 944.947851,288.297025 945.320214,288.326473 L945.313681,288.193956 C945.686045,288.159599 945.52926,288.282301 945.895091,288.18414 L945.895091,288.247944 L946.313183,288.095795 C946.313183,288.326473 947.371479,288.046714 947.685048,288.130151 C948.161935,288.056531 949.069979,287.928921 949.808173,287.943646 C949.964957,288.056531 950.866468,288.017266 951.447878,288.056531 C952.564968,287.98291 954.158945,287.870025 955.596136,287.899473 L955.55694,287.752232 L955.929304,287.737508 C955.929304,287.771864 955.981565,287.786588 955.922771,287.801312 C956.229807,287.963278 956.778553,287.7326 957.092123,287.835669 C956.889609,287.703151 956.830815,287.820945 956.615236,287.820945 C956.301667,287.75714 956.582573,287.604991 957.000665,287.673703 L956.994132,287.70806 L957.268505,287.624623 C957.314234,287.742416 957.575542,287.791496 957.614738,287.904381 C958.842884,287.860209 959.666003,287.624623 960.94641,287.688427 C960.822289,287.816036 961.860987,287.658979 961.619277,287.879841 C962.377069,287.796404 961.482091,287.698243 961.821791,287.541186 C962.037369,287.546094 962.259481,287.48229 962.298677,287.565726 C962.200687,287.619715 962.481592,287.703151 962.30521,287.722784 L962.81476,287.70806 C962.867021,287.727692 962.755965,287.75714 962.697171,287.771864 C963.729336,287.644255 964.552455,287.924013 965.480097,287.791496 C965.545424,287.712968 965.107734,287.766956 965.173061,287.688427 C966.107236,287.53137 966.009245,287.825853 966.884626,287.727692 L966.708243,287.835669 C966.989149,287.762048 967.11327,287.668795 967.577091,287.771864 C967.662016,287.904381 967.18513,287.870025 966.963018,287.928921 C967.28312,287.938738 968.093174,287.924013 967.844931,287.796404 C968.23036,287.762048 968.367547,287.879841 968.576593,287.919105 C968.583125,287.884749 968.217295,287.825853 968.439406,287.766956 C968.962021,287.850393 969.772075,287.865117 970.405746,287.889657 C970.399213,287.924013 970.444942,287.973094 970.386148,287.987818 C970.889165,287.830761 970.836904,288.120335 971.542434,288.100703 Z" id="Path"></path>
        </g>
    </g>
</svg>