<svg xmlns="http://www.w3.org/2000/svg" xmlns:xlink="http://www.w3.org/1999/xlink" width="70" height="35" viewBox="0 0 70 35">
  <defs>
    <path id="new-logo_negative-copy-a" d="M4.82244493,10.596674 C-1.28821586,19.4211454 -1.52997797,29.6564097 4.2834141,33.4561454 L4.2834141,33.4561454 C8.75940529,36.3819604 15.5194934,34.6424449 21.1814758,29.6588767 L21.1814758,29.6588767 C21.88163,31.2295595 22.9365639,32.5327313 24.349207,33.4561454 L24.349207,33.4561454 C28.6687004,36.2794273 35.1147137,34.7587004 40.6487225,30.1704626 L40.6487225,30.1704626 C41.3413216,31.5134141 42.3146916,32.6351101 43.5709912,33.4561454 L43.5709912,33.4561454 C49.3842291,37.2558811 59.0496256,33.1870925 65.1604405,24.3615419 L65.1604405,24.3615419 C71.2712555,15.5361454 71.5130176,5.30180617 65.6996256,1.50207048 L65.6996256,1.50207048 C61.3818282,-1.3227533 54.9348899,0.199361233 49.3999559,4.78821586 L49.3999559,4.78821586 C48.707511,3.44511013 47.734141,2.32325991 46.4781498,1.50207048 L46.4781498,1.50207048 L46.475837,1.50207048 C42.0007709,-1.42513216 35.2411454,0.315462555 29.5793172,5.29933921 L29.5793172,5.29933921 C28.3816079,3.01570485 26.4131278,1.50207048 26.4131278,1.50207048 L26.4131278,1.50207048 C24.9348018,0.535330396 23.2080837,0.0778633972 21.3535463,0.0778633972 L21.3535463,0.0778633972 C15.914207,0.0783259912 9.37953744,4.01605727 4.82244493,10.596674"/>
    <linearGradient id="new-logo_negative-copy-c" x1="100%" x2="33.753%" y1="41.705%" y2="58.295%">
      <stop offset="0%" stop-color="#F6D833"/>
      <stop offset="100%" stop-color="#FF7100"/>
    </linearGradient>
  </defs>
  <g fill="none" fill-rule="evenodd">
    <mask id="new-logo_negative-copy-b" fill="#fff">
      <use xlink:href="#new-logo_negative-copy-a"/>
    </mask>
    <path fill="#FFF" d="M4.82244493,10.596674 C-1.28821586,19.4211454 -1.52997797,29.6564097 4.2834141,33.4561454 L4.2834141,33.4561454 C8.75940529,36.3819604 15.5194934,34.6424449 21.1814758,29.6588767 L21.1814758,29.6588767 C21.88163,31.2295595 22.9365639,32.5327313 24.349207,33.4561454 L24.349207,33.4561454 C28.6687004,36.2794273 35.1147137,34.7587004 40.6487225,30.1704626 L40.6487225,30.1704626 C41.3413216,31.5134141 42.3146916,32.6351101 43.5709912,33.4561454 L43.5709912,33.4561454 C49.3842291,37.2558811 59.0496256,33.1870925 65.1604405,24.3615419 L65.1604405,24.3615419 C71.2712555,15.5361454 71.5130176,5.30180617 65.6996256,1.50207048 L65.6996256,1.50207048 C61.3818282,-1.3227533 54.9348899,0.199361233 49.3999559,4.78821586 L49.3999559,4.78821586 C48.707511,3.44511013 47.734141,2.32325991 46.4781498,1.50207048 L46.4781498,1.50207048 L46.475837,1.50207048 C42.0007709,-1.42513216 35.2411454,0.315462555 29.5793172,5.29933921 L29.5793172,5.29933921 C28.3816079,3.01570485 26.4131278,1.50207048 26.4131278,1.50207048 L26.4131278,1.50207048 C24.9348018,0.535330396 23.2080837,0.0778633972 21.3535463,0.0778633972 L21.3535463,0.0778633972 C15.914207,0.0783259912 9.37953744,4.01605727 4.82244493,10.596674" mask="url(#new-logo_negative-copy-b)"/>
    <path fill="url(#new-logo_negative-copy-c)" d="M20.3902291,12.9520352 C20.7556476,12.2588194 21.613533,11.9930044 22.3070573,12.3582687 C23.0002731,12.7236872 23.2660881,13.5818811 22.9008238,14.2750969 L22.9008238,14.2750969 L17.7661542,24.0189736 C16.7989515,25.8674978 14.8981586,27.0632026 12.8074097,27.1356696 L12.8074097,27.1356696 L12.7572996,27.1364405 C11.9963965,27.1364405 11.3667048,26.5332687 11.340185,25.766815 C11.3130485,24.9835551 11.9259339,24.3267269 12.7090396,24.2995903 C13.781859,24.2624317 14.7569251,23.6493921 15.2537093,22.6997665 L15.2537093,22.6997665 L15.754348,21.7495242 L11.7879383,14.2789515 C11.4205154,13.586815 11.6837093,12.7278502 12.3756916,12.3604273 C13.0678282,11.9930044 13.926793,12.2560441 14.2942159,12.9481806 L14.2942159,12.9481806 L17.3547885,18.7125419 Z M28.8246123,12.1948018 C32.0345903,12.1948018 34.6461762,14.8062335 34.6461762,18.0163656 L34.6461762,18.0163656 L34.6461762,22.464141 C34.6461762,23.2477093 34.0109339,23.8829515 33.2273656,23.8829515 C32.6174097,23.8829515 32.0988855,23.4973348 31.8982907,22.9570705 C31.0055595,23.5146035 29.9523216,23.8379295 28.8246123,23.8379295 C25.6146344,23.8379295 23.0030485,21.2263436 23.0030485,18.0163656 C23.0030485,14.8062335 25.6146344,12.1948018 28.8246123,12.1948018 Z M45.9206784,7.8276652 L46.0573163,7.83416033 C46.776783,7.90291336 47.339489,8.50900881 47.339489,9.24662996 L47.339489,9.24662996 L47.339489,22.464141 C47.339489,23.2477093 46.7042467,23.8829515 45.9206784,23.8829515 C45.3107225,23.8829515 44.7920441,23.4973348 44.5916035,22.9570705 C43.6988722,23.5146035 42.6456344,23.8379295 41.5179251,23.8379295 C38.307793,23.8379295 35.696207,21.2263436 35.696207,18.0163656 C35.696207,14.8062335 38.307793,12.1948018 41.5179251,12.1948018 C42.6080132,12.1948018 43.6285639,12.4965419 44.5017137,13.02 L44.5017137,13.02 L44.5017137,9.24662996 C44.5017137,8.46290749 45.1369559,7.8276652 45.9206784,7.8276652 L45.9206784,7.8276652 Z M53.1074798,8.17180617 C55.9567638,8.17180617 58.2747672,10.4920812 58.2747672,13.3440081 C58.2747672,14.4376705 57.9375623,15.4834767 57.2996071,16.3683666 C57.270324,16.4090444 57.2382021,16.4492734 57.204138,16.4878574 L53.4768066,20.695459 L57.2214688,20.695459 C58.0612688,20.695459 58.7444934,21.3793532 58.7444934,22.2199762 C58.7444934,23.0605992 58.0612688,23.7444934 57.2214688,23.7444934 L50.0908633,23.7444934 C49.4926496,23.7444934 48.947325,23.3915544 48.7020036,22.8453962 C48.4565328,22.2992379 48.5543924,21.6567693 48.9513589,21.2085666 L54.8676085,14.5294944 L54.8725389,14.5221665 C55.1054597,14.1738635 55.2285687,13.7666376 55.2285687,13.3440081 C55.2285687,12.1733273 54.2771639,11.2208405 53.1074798,11.2208405 C52.5409398,11.2208405 52.0083145,11.4417265 51.6077623,11.8428208 C51.3201596,12.1307054 50.9376853,12.2892289 50.5308581,12.2892289 C50.124031,12.2892289 49.7415567,12.1307054 49.4538046,11.8428208 C49.1663513,11.5549362 49.0076842,11.1720871 49.0076842,10.7647117 C49.0076842,10.3574858 49.1663513,9.97463671 49.4538046,9.68675212 C50.4297116,8.70988865 51.7274349,8.17180617 53.1074798,8.17180617 Z M28.8246123,15.0324229 C27.179304,15.0324229 25.8406696,16.3710573 25.8406696,18.0163656 C25.8406696,19.6615198 27.179304,21.0001542 28.8246123,21.0001542 C30.4699207,21.0001542 31.8085551,19.6615198 31.8085551,18.0163656 C31.8085551,16.3710573 30.4699207,15.0324229 28.8246123,15.0324229 Z M41.5179251,15.0324229 C39.8726167,15.0324229 38.5339824,16.3710573 38.5339824,18.0163656 C38.5339824,19.6615198 39.8726167,21.0001542 41.5179251,21.0001542 C43.1630793,21.0001542 44.5017137,19.6615198 44.5017137,18.0163656 C44.5017137,16.3710573 43.1630793,15.0324229 41.5179251,15.0324229 Z" mask="url(#new-logo_negative-copy-b)"/>
  </g>
</svg>
