<svg xmlns="http://www.w3.org/2000/svg" xmlns:xlink="http://www.w3.org/1999/xlink" width="80" height="40" viewBox="0 0 80 40">
  <defs>
    <path id="yad2_logo_white2-a" d="M5.48719296,12.0573684 C-1.46578947,22.0982456 -1.74087719,33.744386 4.87385965,38.0678947 C9.96684208,41.3970175 17.6587719,39.4177193 24.1012281,33.747193 C24.8978947,35.534386 26.0982456,37.017193 27.705614,38.0678947 C32.6205263,41.2803509 39.9550877,39.55 46.2519298,34.3292982 C47.04,35.8573684 48.1475438,37.1336842 49.5770175,38.0678947 C56.1915792,42.3914035 67.1892981,37.7617544 74.142456,27.7196491 C81.0956139,17.6777193 81.3707019,6.03263157 74.7559648,1.70912281 C69.8429824,-1.50508772 62.5073685,0.226842105 56.2094736,5.4482456 C55.4215792,3.92 54.3140352,2.64350877 52.8849123,1.70912281 L52.8822807,1.70912281 C47.7903509,-1.62157895 40.0989474,0.358947369 33.6566667,6.02982459 C32.2938596,3.43140351 30.0540351,1.70912281 30.0540351,1.70912281 C28.3719298,0.609122805 26.407193,0.0884210528 24.2970175,0.0885964912 C18.1078947,0.0891228069 10.6724562,4.56964913 5.48719296,12.0573684"/>
    <path id="yad2_logo_white2-c" d="M5.48719296,12.0573684 C-1.46578947,22.0982456 -1.74087719,33.744386 4.87385965,38.0678947 C9.96684208,41.3970175 17.6587719,39.4177193 24.1012281,33.747193 C24.8978947,35.534386 26.0982456,37.017193 27.705614,38.0678947 C32.6205263,41.2803509 39.9550877,39.55 46.2519298,34.3292982 C47.04,35.8573684 48.1475438,37.1336842 49.5770175,38.0678947 C56.1915792,42.3914035 67.1892981,37.7617544 74.142456,27.7196491 C81.0956139,17.6777193 81.3707019,6.03263157 74.7559648,1.70912281 C69.8429824,-1.50508772 62.5073685,0.226842105 56.2094736,5.4482456 C55.4215792,3.92 54.3140352,2.64350877 52.8849123,1.70912281 L52.8822807,1.70912281 C47.7903509,-1.62157895 40.0989474,0.358947369 33.6566667,6.02982459 C32.2938596,3.43140351 30.0540351,1.70912281 30.0540351,1.70912281 C28.3719298,0.609122805 26.407193,0.0884210528 24.2970175,0.0885964912 C18.1078947,0.0891228069 10.6724562,4.56964913 5.48719296,12.0573684"/>
    <linearGradient id="yad2_logo_white2-d" x1="100%" x2="33.753%" y1="0%" y2="100%">
      <stop offset="0%" stop-color="#F6D833"/>
      <stop offset="100%" stop-color="#FF7100"/>
    </linearGradient>
  </defs>
  <g fill="none" fill-rule="evenodd">
    <mask id="yad2_logo_white2-b" fill="#fff">
      <use xlink:href="#yad2_logo_white2-a"/>
    </mask>
    <path fill="#FFF" fill-rule="nonzero" d="M5.48719296,12.0573684 C-1.46578947,22.0982456 -1.74087719,33.744386 4.87385965,38.0678947 C9.96684208,41.3970175 17.6587719,39.4177193 24.1012281,33.747193 C24.8978947,35.534386 26.0982456,37.017193 27.705614,38.0678947 C32.6205263,41.2803509 39.9550877,39.55 46.2519298,34.3292982 C47.04,35.8573684 48.1475438,37.1336842 49.5770175,38.0678947 C56.1915792,42.3914035 67.1892981,37.7617544 74.142456,27.7196491 C81.0956139,17.6777193 81.3707019,6.03263157 74.7559648,1.70912281 C69.8429824,-1.50508772 62.5073685,0.226842105 56.2094736,5.4482456 C55.4215792,3.92 54.3140352,2.64350877 52.8849123,1.70912281 L52.8822807,1.70912281 C47.7903509,-1.62157895 40.0989474,0.358947369 33.6566667,6.02982459 C32.2938596,3.43140351 30.0540351,1.70912281 30.0540351,1.70912281 C28.3719298,0.609122805 26.407193,0.0884210528 24.2970175,0.0885964912 C18.1078947,0.0891228069 10.6724562,4.56964913 5.48719296,12.0573684" mask="url(#yad2_logo_white2-b)"/>
    <mask id="yad2_logo_white2-e" fill="#fff">
      <use xlink:href="#yad2_logo_white2-c"/>
    </mask>
    <path fill="url(#yad2_logo_white2-d)" fill-rule="nonzero" d="M25.3819649,14.0617895 C26.1707369,14.4775789 26.473193,15.4540702 26.0575789,16.2428421 L20.2151228,27.3298596 C19.1145965,29.433193 16.9517895,30.7937193 14.5728421,30.8761754 C14.5537193,30.8767018 14.5347719,30.8770526 14.5158246,30.8770526 C13.6500351,30.8770526 12.9335438,30.1907369 12.9033684,29.3186316 C12.8724913,28.4274035 13.5698596,27.6800351 14.4609123,27.6491579 C15.681614,27.6068772 16.7910877,26.9093333 17.3563509,25.828807 L17.926,24.7475789 L13.4128421,16.2472281 C12.9947719,15.4596842 13.2942456,14.4823158 14.081614,14.0642456 C14.8691579,13.6461754 15.8465263,13.9454737 16.2645965,14.7330175 L19.7470526,21.2919649 L23.2009123,14.7374035 C23.6167018,13.9486316 24.5928421,13.6461754 25.3819649,14.0617895 Z M56.9956187,27.0175438 C56.3149445,27.0175438 55.6944501,26.6159541 55.4153125,25.9945109 C55.1360048,25.3730677 55.2473536,24.6420382 55.69904,24.1320532 L62.4308128,16.5323069 L62.4364229,16.5239689 C62.7014507,16.1276542 62.8415291,15.6642945 62.8415291,15.1834077 C62.8415291,13.8513548 61.7589787,12.7675729 60.4280597,12.7675729 C59.7834251,12.7675729 59.1773803,13.0189069 58.7216144,13.4752898 C58.3943669,13.8028578 57.9591707,13.9832329 57.4962645,13.9832329 C57.0333584,13.9832329 56.5981621,13.8028578 56.2707451,13.4752898 C55.9436677,13.1477219 55.7631296,12.7120991 55.7631296,12.2485692 C55.7631296,11.7852094 55.9436677,11.3495866 56.2707451,11.0220187 C57.3811755,9.91049984 58.8577829,9.2982456 60.4280597,9.2982456 C63.6701024,9.2982456 66.3076299,11.9383581 66.3076299,15.1834077 C66.3076299,16.4278255 65.9239429,17.6177905 65.1980491,18.6246578 C65.1647296,18.6709427 65.1281797,18.7167171 65.0894203,18.7606197 L60.848296,23.5482165 L65.1091397,23.5482165 C66.0647019,23.5482165 66.8421051,24.3263818 66.8421051,25.2828802 C66.8421051,26.2393786 66.0647019,27.0175438 65.1091397,27.0175438 L56.9956187,27.0175438 Z M32.7979298,23.8949123 C34.6700351,23.8949123 36.193193,22.3717544 36.193193,20.4998246 C36.193193,18.6277193 34.6700351,17.1045614 32.7979298,17.1045614 C30.9258246,17.1045614 29.4026667,18.6277193 29.4026667,20.4998246 C29.4026667,22.3717544 30.9258246,23.8949123 32.7979298,23.8949123 Z M39.4219649,20.4998246 L39.4219649,25.5607018 C39.4219649,26.4522807 38.6991579,27.1750877 37.8075789,27.1750877 C37.1135438,27.1750877 36.5235438,26.7363158 36.2952982,26.1215789 C35.2795087,26.7559649 34.0810877,27.1238596 32.7979298,27.1238596 C29.1454737,27.1238596 26.1738947,24.1522807 26.1738947,20.4998246 C26.1738947,16.847193 29.1454737,13.8757895 32.7979298,13.8757895 C36.450386,13.8757895 39.4219649,16.847193 39.4219649,20.4998246 Z M47.2409474,23.8949123 C49.1128772,23.8949123 50.6360351,22.3717544 50.6360351,20.4998246 C50.6360351,18.6277193 49.1128772,17.1045614 47.2409474,17.1045614 C45.3688421,17.1045614 43.8456842,18.6277193 43.8456842,20.4998246 C43.8456842,22.3717544 45.3688421,23.8949123 47.2409474,23.8949123 Z M52.2505965,8.90666667 C53.1421754,8.90666667 53.8649824,9.62947371 53.8649824,10.5212281 L53.8649824,25.5607018 C53.8649824,26.4522807 53.1421754,27.1750877 52.2505965,27.1750877 C51.5565614,27.1750877 50.966386,26.7363158 50.7383158,26.1215789 C49.7225263,26.7559649 48.5241053,27.1238596 47.2409474,27.1238596 C43.5883158,27.1238596 40.6167369,24.1522807 40.6167369,20.4998246 C40.6167369,16.847193 43.5883158,13.8757895 47.2409474,13.8757895 C48.4812982,13.8757895 49.6425263,14.2191228 50.6360351,14.8147369 L50.6360351,10.5212281 C50.6360351,9.62947371 51.3588421,8.90666667 52.2505965,8.90666667 Z" mask="url(#yad2_logo_white2-e)"/>
  </g>
</svg>
